<svg xmlns="http://www.w3.org/2000/svg" width="2560" height="1440" viewBox="0 0 2560 1440">
<defs>
<linearGradient id="bg" x1="0" y1="0" x2="0" y2="1"><stop stop-color="#2475F5"/><stop offset=".34" stop-color="#70A8F8"/><stop offset=".67" stop-color="#DDEBFC"/><stop offset="1" stop-color="#FFF"/></linearGradient>
<radialGradient id="g"><stop stop-color="#3E8BFF" stop-opacity=".7"/><stop offset="1" stop-color="#FFF" stop-opacity="0"/></radialGradient>
<radialGradient id="o"><stop stop-color="#BBD9FF" stop-opacity=".25"/><stop offset="1" stop-color="#BBD9FF" stop-opacity="0"/></radialGradient>
<filter id="b"><feGaussianBlur stdDeviation="45"/></filter>
<pattern id="d" width="28" height="28" patternUnits="userSpaceOnUse"><circle cx="2" cy="2" r="1.7" fill="#FFF" opacity=".22"/></pattern>
<linearGradient id="l"><stop stop-color="#FFF" stop-opacity="0"/><stop offset=".5" stop-color="#FFF" stop-opacity=".5"/><stop offset="1" stop-color="#FFF" stop-opacity="0"/></linearGradient>
</defs>
<rect width="2560" height="1440" fill="url(#bg)"/><ellipse cx="1280" cy="350" rx="900" ry="420" fill="url(#g)" opacity=".7" filter="url(#b)"/>
<circle cx="260" cy="1220" r="330" fill="url(#o)"/><circle cx="2310" cy="1270" r="390" fill="url(#o)"/>
<rect width="520" height="330" fill="url(#d)"/><rect x="2040" width="520" height="330" fill="url(#d)"/>
<g fill="none" stroke="#FFF" stroke-opacity=".2" stroke-width="3"><rect x="610" y="230" width="1340" height="620" rx="34"/><rect x="710" y="330" width="1140" height="420" rx="28"/><rect x="250" y="300" width="300" height="420" rx="28"/><rect x="2010" y="300" width="300" height="420" rx="28"/></g>
<path d="M650 230h280m700 0h280M710 750h330m480 0h330" stroke="url(#l)" stroke-width="5" fill="none"/>
<g fill="none" stroke="#FFF" stroke-opacity=".22" stroke-width="3"><path d="M400 720v180h420v180"/><path d="M2160 720v180h-420v180"/><path d="M550 500H400v70M2010 500h150v70"/></g>
<g fill="#FFF" opacity=".3"><circle cx="400" cy="900" r="7"/><circle cx="820" cy="1080" r="7"/><circle cx="2160" cy="900" r="7"/><circle cx="1740" cy="1080" r="7"/><circle cx="400" cy="570" r="7"/><circle cx="2160" cy="570" r="7"/></g>
<path d="M180 790h430M1950 790h430M820 1010h920" stroke="url(#l)" stroke-width="2" fill="none" opacity=".5"/>
<rect y="1020" width="2560" height="420" fill="#FFF" opacity=".12"/>
</svg>
